<mxfile host="app.diagrams.net" modified="2022-01-13T08:43:47.071Z" agent="5.0 (Windows NT 10.0; Win64; x64) AppleWebKit/537.36 (KHTML, like Gecko) Chrome/97.0.4692.71 Safari/537.36" etag="b4L0CGvnsOQV4GAhNvDS" version="16.2.4" type="github">
  <diagram id="H7_tCYUHHZJKz_Q6d8IM" name="第 1 页">
    <mxGraphModel dx="1504" dy="-985" grid="0" gridSize="10" guides="1" tooltips="1" connect="1" arrows="1" fold="1" page="0" pageScale="1" pageWidth="827" pageHeight="1169" background="none" math="0" shadow="0">
      <root>
        <mxCell id="0" />
        <mxCell id="1" parent="0" />
        <mxCell id="LN4RIfl6_Ic5JrLGgOFw-55" value="" style="whiteSpace=wrap;html=1;fontSize=18;fontStyle=1;strokeWidth=2;fillColor=#F2F2F2;strokeColor=#D9D9D9;" parent="1" vertex="1">
          <mxGeometry x="80.5" y="1950" width="1022.5" height="239" as="geometry" />
        </mxCell>
        <mxCell id="LN4RIfl6_Ic5JrLGgOFw-67" value="" style="whiteSpace=wrap;html=1;strokeColor=none;dashed=1;verticalAlign=top;spacingTop=0;fillColor=#FFE5DB;fontSize=16;" parent="1" vertex="1">
          <mxGeometry x="233.5" y="1963" width="855" height="70" as="geometry" />
        </mxCell>
        <mxCell id="LN4RIfl6_Ic5JrLGgOFw-57" value="" style="whiteSpace=wrap;html=1;strokeColor=none;dashed=1;verticalAlign=top;spacingTop=0;fillColor=#FFE5DB;fontSize=16;" parent="1" vertex="1">
          <mxGeometry x="233.5" y="2055" width="855" height="120" as="geometry" />
        </mxCell>
        <mxCell id="LN4RIfl6_Ic5JrLGgOFw-3" value="Maven" style="whiteSpace=wrap;html=1;strokeColor=#BB5933;dashed=1;" parent="1" vertex="1">
          <mxGeometry x="299.5" y="2123" width="149" height="40" as="geometry" />
        </mxCell>
        <mxCell id="LN4RIfl6_Ic5JrLGgOFw-4" value="Git" style="whiteSpace=wrap;html=1;strokeColor=#BB5933;dashed=1;" parent="1" vertex="1">
          <mxGeometry x="501.5" y="2123" width="149" height="40" as="geometry" />
        </mxCell>
        <mxCell id="LN4RIfl6_Ic5JrLGgOFw-8" value="Docker" style="whiteSpace=wrap;html=1;strokeColor=#BB5933;dashed=1;" parent="1" vertex="1">
          <mxGeometry x="299.5" y="2073" width="149" height="40" as="geometry" />
        </mxCell>
        <mxCell id="LN4RIfl6_Ic5JrLGgOFw-9" value="Jenkins" style="whiteSpace=wrap;html=1;strokeColor=#BB5933;dashed=1;" parent="1" vertex="1">
          <mxGeometry x="703.5" y="2123" width="149" height="40" as="geometry" />
        </mxCell>
        <mxCell id="LN4RIfl6_Ic5JrLGgOFw-13" value="Kubernetes" style="whiteSpace=wrap;html=1;strokeColor=#BB5933;dashed=1;" parent="1" vertex="1">
          <mxGeometry x="501.5" y="2073" width="149" height="40" as="geometry" />
        </mxCell>
        <mxCell id="LN4RIfl6_Ic5JrLGgOFw-14" value="Jira" style="whiteSpace=wrap;html=1;strokeColor=#BB5933;dashed=1;" parent="1" vertex="1">
          <mxGeometry x="703.5" y="2073" width="149" height="40" as="geometry" />
        </mxCell>
        <mxCell id="LN4RIfl6_Ic5JrLGgOFw-51" value="Wiki" style="whiteSpace=wrap;html=1;strokeColor=#BB5933;dashed=1;" parent="1" vertex="1">
          <mxGeometry x="905.5" y="2073" width="149" height="40" as="geometry" />
        </mxCell>
        <mxCell id="LN4RIfl6_Ic5JrLGgOFw-52" value="持续集成" style="whiteSpace=wrap;html=1;strokeColor=#BB5933;dashed=1;" parent="1" vertex="1">
          <mxGeometry x="299.5" y="1978" width="220" height="40" as="geometry" />
        </mxCell>
        <mxCell id="LN4RIfl6_Ic5JrLGgOFw-53" value="持续交付" style="whiteSpace=wrap;html=1;strokeColor=#BB5933;dashed=1;" parent="1" vertex="1">
          <mxGeometry x="567" y="1978" width="220" height="40" as="geometry" />
        </mxCell>
        <mxCell id="LN4RIfl6_Ic5JrLGgOFw-54" value="持续部署" style="whiteSpace=wrap;html=1;strokeColor=#BB5933;dashed=1;" parent="1" vertex="1">
          <mxGeometry x="834.5" y="1978" width="220" height="40" as="geometry" />
        </mxCell>
        <mxCell id="LN4RIfl6_Ic5JrLGgOFw-65" value="Selenium" style="whiteSpace=wrap;html=1;strokeColor=#BB5933;dashed=1;" parent="1" vertex="1">
          <mxGeometry x="905.5" y="2123" width="149" height="40" as="geometry" />
        </mxCell>
        <mxCell id="LN4RIfl6_Ic5JrLGgOFw-68" value="运 维" style="whiteSpace=wrap;html=1;fillColor=none;strokeColor=none;fontSize=18;fontStyle=1;fontColor=#E66B0F;" parent="1" vertex="1">
          <mxGeometry x="85.5" y="1982" width="120" height="40" as="geometry" />
        </mxCell>
      </root>
    </mxGraphModel>
  </diagram>
</mxfile>
